<svg width="641" height="641" viewBox="0 0 641 641" fill="none" xmlns="http://www.w3.org/2000/svg">
<path fill-rule="evenodd" clip-rule="evenodd" d="M616.909 199.806C550.386 35.9705 363.643 -42.9172 199.808 23.6055C35.9722 90.1283 -42.9156 276.871 23.6034 440.711C90.1262 604.546 276.869 683.434 440.705 616.911C604.544 550.384 683.432 363.641 616.909 199.806ZM282.733 45.2603C405.44 28.424 528.626 95.841 577.357 215.865C596.858 263.899 601.94 314.2 594.628 361.977C584.934 372.878 572.596 381.142 558.759 385.938C543.156 391.337 526.324 392.096 510.295 388.126C496.342 384.677 482.203 382.425 468.012 381.357C442.987 379.47 417.816 381.278 393.316 386.707C379.419 389.79 365.734 394.043 352.414 399.446C336.77 405.8 319.59 407.366 303.052 403.959C286.514 400.552 271.36 392.311 259.501 380.285C247.645 368.264 239.619 352.993 236.442 336.406C233.262 319.822 235.076 302.665 241.646 287.116C247.238 273.872 251.683 260.25 254.958 246.395C260.735 221.97 262.889 196.829 261.357 171.782C260.489 157.572 258.452 143.392 255.192 129.393C251.445 113.315 252.441 96.4938 258.059 80.9668C263.074 67.1076 271.59 54.818 282.733 45.2528V45.2603ZM215.871 63.1607C217.18 62.6287 218.489 62.1118 219.802 61.5986C219.149 63.2022 218.512 64.8134 217.923 66.4435C214.471 75.9861 212.18 85.8532 211.067 95.841C209.467 110.217 210.305 124.835 213.614 139.064L213.591 139.071C213.591 139.071 213.603 139.113 213.607 139.132C223.802 183.015 219.851 229 202.324 270.502C196.638 283.969 193.325 298.239 192.457 312.676C191.823 323.256 192.503 333.927 194.514 344.443C199.279 369.32 211.316 392.224 229.103 410.26C246.891 428.296 269.621 440.65 294.43 445.77C304.92 447.936 315.579 448.763 326.163 448.276C340.615 447.612 354.927 444.506 368.477 439.009C410.22 422.055 456.254 418.75 499.994 429.564C500.013 429.568 500.032 429.572 500.054 429.579L500.062 429.572C514.234 433.073 528.829 434.115 543.224 432.715C553.227 431.745 563.128 429.595 572.72 426.274C574.294 425.727 575.848 425.146 577.395 424.542C573.78 433.447 569.705 442.163 565.192 450.653C542.142 456.098 518.094 456.026 494.976 450.302L494.934 450.291L494.825 450.264C480.818 446.801 466.552 444.948 452.289 444.684C440.75 444.472 429.211 445.295 417.82 447.155C403.719 449.453 389.845 453.328 376.461 458.766L376.476 458.796C349.108 469.901 319.062 472.644 290.132 466.678C261.191 460.709 234.669 446.291 213.923 425.251C193.17 404.212 179.13 377.493 173.568 348.469C168.007 319.445 171.176 289.425 182.677 262.205C188.303 248.896 192.367 235.067 194.865 221C196.88 209.635 197.868 198.112 197.819 186.569C197.755 172.303 196.099 158.013 192.838 143.962C192.835 143.943 192.831 143.924 192.823 143.901C187.424 120.654 187.692 96.4259 193.514 73.3976C200.751 69.6923 208.207 66.2737 215.882 63.157L215.871 63.1607ZM424.649 577.356C282.661 635.011 120.814 566.643 63.1624 424.652C27.4408 336.67 40.1115 241.078 88.6886 167.363C88.7414 167.582 88.7829 167.805 88.8357 168.024C88.8395 168.043 88.8471 168.065 88.8508 168.084L88.8584 168.092C88.8659 168.099 88.8622 168.11 88.8659 168.122C92.9411 185.675 91.3601 204.07 84.3493 220.672C78.7574 233.909 74.3124 247.53 71.0372 261.393C62.7549 296.398 61.9059 332.919 68.7393 368.558C78.2744 418.316 102.348 464.124 137.918 500.192C173.485 536.265 218.953 560.98 268.568 571.209C304.112 578.537 340.637 578.197 375.755 570.413C389.656 567.326 403.345 563.078 416.661 557.671C433.358 550.89 451.772 549.569 469.265 553.894C469.268 553.897 469.283 553.897 469.291 553.897L469.302 553.909L469.299 553.92C469.468 553.961 469.642 553.999 469.812 554.041C455.741 563.017 440.667 570.854 424.649 577.356ZM514.944 518.07C503.013 517.195 491.172 515.331 479.547 512.467L479.554 512.459C467.499 509.475 455.16 508.275 442.912 508.841C440.72 508.943 438.535 509.097 436.35 509.312C424.144 510.501 412.103 513.448 400.599 518.115C361.481 533.997 318.534 537.921 277.19 529.397C235.842 520.87 197.955 500.272 168.312 470.214C138.673 440.152 118.611 401.978 110.664 360.517C102.718 319.056 107.246 276.169 123.674 237.282C128.504 225.849 131.617 213.839 132.979 201.655C133.221 199.474 133.409 197.293 133.541 195.101C134.274 182.86 133.251 170.503 130.436 158.413C130.436 158.413 130.425 158.372 130.421 158.353C127.708 146.629 125.999 134.709 125.297 122.71C131.957 116.134 138.979 109.859 146.356 103.938C146.28 106.263 146.235 108.587 146.246 110.908C146.31 125.205 147.952 139.524 151.223 153.58C158.373 184.313 155.615 216.525 143.333 245.591C137.715 258.892 133.643 272.713 131.145 286.787C127.07 309.744 127.191 333.372 131.625 356.506C138.775 393.82 156.834 428.179 183.507 455.23C210.184 482.284 244.287 500.819 281.499 508.494C304.569 513.248 328.189 513.701 351.206 509.95C365.311 507.648 379.189 503.769 392.565 498.34L392.55 498.309C421.77 486.454 454.055 484.152 484.671 491.729L484.709 491.737C498.707 495.2 512.985 497.057 527.267 497.325C529.497 497.366 531.731 497.366 533.965 497.328C528.003 504.535 521.653 511.459 514.944 518.07Z" fill="#4E61F3"/>
<path fill-rule="evenodd" clip-rule="evenodd" d="M275.028 365.598C299.743 390.313 339.807 390.313 364.522 365.598L380.679 349.441C405.394 324.726 405.394 284.662 380.679 259.947C355.964 235.232 315.9 235.232 291.185 259.947L275.028 276.104C250.313 300.819 250.313 340.883 275.028 365.598ZM321.371 290.133C329.412 282.092 342.452 282.092 350.493 290.133C358.534 298.174 358.534 311.214 350.493 319.255L334.336 335.412C326.295 343.453 313.255 343.453 305.214 335.412C297.173 327.371 297.173 314.331 305.214 306.29L321.371 290.133Z" fill="#4E61F3"/>
</svg>
