<svg width="642" height="641" viewBox="0 0 642 641" fill="none" xmlns="http://www.w3.org/2000/svg">
<g clip-path="url(#clip0_534_31)">
<path fill-rule="evenodd" clip-rule="evenodd" d="M196.495 615.196C359.383 684.007 547.213 607.741 616.023 444.853C684.833 281.966 608.568 94.1363 445.68 25.3205C282.793 -43.4899 94.9633 32.7752 26.1528 195.663C-42.6576 358.556 33.6075 546.386 196.495 615.196ZM542.074 488.178C467.212 586.85 332.435 626.285 213.107 575.874C165.353 555.697 126.191 523.723 97.578 484.768C96.7242 470.206 99.6058 455.638 105.999 442.463C113.213 427.612 124.579 415.173 138.72 406.646C151.026 399.218 162.616 390.814 173.406 381.534C192.435 365.173 208.955 346.096 222.44 324.933C230.087 312.926 236.757 300.242 242.355 287.003C248.924 271.448 259.964 258.193 274.068 248.908C288.172 239.623 304.714 234.735 321.603 234.852C338.487 234.97 354.96 240.092 368.935 249.575C382.911 259.052 393.759 272.467 400.109 288.108C405.52 301.427 412.009 314.202 419.49 326.315C432.676 347.67 448.93 366.971 467.724 383.599C478.386 393.034 489.854 401.62 502.058 409.213C516.076 417.932 527.266 430.531 534.272 445.483C540.526 458.829 543.194 473.541 542.079 488.184L542.074 488.178ZM576.695 428.242C576.145 429.544 575.585 430.835 575.02 432.127C574.347 430.531 573.659 428.941 572.922 427.372C568.616 418.183 563.259 409.586 556.983 401.737C547.949 390.44 537.02 380.696 524.619 372.975L524.63 372.953C524.63 372.953 524.592 372.932 524.576 372.921C486.337 349.101 456.614 313.791 439.661 272.051C434.16 258.508 426.411 246.074 416.817 235.252C409.784 227.323 401.758 220.258 392.9 214.244C371.939 200.023 347.233 192.339 321.902 192.163C296.571 191.986 271.763 199.324 250.599 213.246C241.65 219.132 233.529 226.085 226.389 233.913C216.64 244.602 208.715 256.917 203.022 270.386C185.492 311.891 155.278 346.779 116.703 370.061C116.687 370.072 116.671 370.082 116.65 370.093L116.65 370.104C104.152 377.649 93.0956 387.233 83.9066 398.402C77.5192 406.161 72.0388 414.683 67.6045 423.813C66.8787 425.312 66.1904 426.822 65.5234 428.343C61.7827 419.49 58.5009 410.446 55.6887 401.251C68.1381 381.102 85.1927 364.149 105.588 351.849L105.625 351.827L105.721 351.769C118.074 344.314 129.473 335.536 139.745 325.637C148.053 317.628 155.631 308.887 162.37 299.516C170.716 287.921 177.787 275.37 183.406 262.062L183.374 262.051C194.873 234.847 214.18 211.661 238.854 195.423C263.54 179.18 292.489 170.62 322.035 170.828C351.587 171.031 380.408 179.996 404.864 196.586C429.32 213.177 448.306 236.645 459.421 264.025C464.853 277.414 471.759 290.066 479.939 301.779C486.55 311.24 494 320.088 502.196 328.215C512.33 338.257 523.605 347.19 535.846 354.821C535.862 354.832 535.878 354.842 535.9 354.853C556.156 367.473 573.099 384.794 585.265 405.195C582.768 412.932 579.913 420.622 576.69 428.253L576.695 428.242ZM65.4753 212.28C125.107 71.1106 287.894 5.01084 429.064 64.6483C516.535 101.602 575.169 178.155 592.944 264.628C592.752 264.511 592.565 264.383 592.373 264.265C592.357 264.255 592.336 264.244 592.32 264.233L592.309 264.233C592.298 264.233 592.293 264.223 592.282 264.217C576.989 254.687 565.1 240.562 558.317 223.865C552.912 210.551 546.423 197.776 538.936 185.658C520.041 155.049 494.816 128.624 464.784 108.256C422.857 79.8139 373.444 64.4456 322.788 64.0934C272.131 63.7359 222.504 78.4105 180.188 106.26C149.873 126.212 124.286 152.28 104.958 182.616C97.3112 194.628 90.6356 207.312 85.0432 220.551C78.0314 237.152 65.945 251.106 50.518 260.418C50.5127 260.418 50.5019 260.429 50.4966 260.434L50.4806 260.434L50.4753 260.423C50.3258 260.514 50.1764 260.61 50.027 260.701C53.629 244.404 58.7464 228.203 65.4753 212.28ZM43.5489 318.049C52.6044 310.232 62.2949 303.177 72.5405 296.982L72.5405 296.992C83.1755 290.578 92.7487 282.702 101.009 273.641C102.487 272.019 103.923 270.365 105.316 268.668C113.106 259.196 119.537 248.598 124.371 237.163C140.801 198.272 168.395 165.129 203.657 141.922C238.924 118.715 280.279 106.49 322.494 106.783C364.709 107.082 405.888 119.889 440.825 143.587C475.761 167.285 502.885 200.813 518.765 239.927C523.434 251.426 529.726 262.12 537.378 271.699C538.749 273.412 540.158 275.087 541.615 276.731C549.753 285.904 559.214 293.919 569.753 300.477C569.753 300.477 569.79 300.498 569.806 300.509C580.014 306.88 589.651 314.1 598.632 322.089C598.574 331.448 598.045 340.851 597.015 350.253C595.425 348.556 593.814 346.881 592.165 345.248C582.01 335.184 570.724 326.219 558.472 318.593C531.684 301.918 510.857 277.19 498.989 247.953C493.557 234.575 486.663 221.923 478.477 210.204C465.126 191.09 448.333 174.468 428.839 161.245C397.398 139.916 360.333 128.389 322.345 128.123C284.351 127.856 247.131 138.864 215.391 159.75C195.716 172.701 178.694 189.084 165.07 208.011C156.725 219.612 149.654 232.168 144.035 245.466L144.067 245.477C131.788 274.522 110.588 298.978 83.5811 315.269L83.549 315.29C71.2011 322.74 59.7923 331.523 49.504 341.432C47.8978 342.98 46.3184 344.559 44.7655 346.166C43.885 336.854 43.4795 327.468 43.5489 318.049Z" fill="#4E61F3"/>
<path fill-rule="evenodd" clip-rule="evenodd" d="M321.009 256.217C286.057 256.217 257.727 284.547 257.727 319.499L257.727 342.349C257.727 377.301 286.057 405.631 321.009 405.631C355.961 405.631 384.291 377.301 384.291 342.349L384.291 319.499C384.291 284.547 355.961 256.217 321.009 256.217ZM341.601 342.349C341.601 353.72 332.38 362.941 321.009 362.941C309.638 362.941 300.417 353.72 300.417 342.349L300.417 319.499C300.417 308.127 309.638 298.906 321.009 298.906C332.38 298.906 341.601 308.127 341.601 319.499L341.601 342.349Z" fill="#4E61F3"/>
</g>
<defs>
<clipPath id="clip0_534_31">
<rect width="642" height="641" fill="white"/>
</clipPath>
</defs>
</svg>
