<svg width="1920" height="641" viewBox="0 0 1920 641" fill="none" xmlns="http://www.w3.org/2000/svg">
<path fill-rule="evenodd" clip-rule="evenodd" d="M616.909 199.806C550.386 35.9706 363.643 -42.9172 199.808 23.6055C35.9722 90.1283 -42.9156 276.871 23.6034 440.711C90.1262 604.546 276.869 683.434 440.705 616.911C604.544 550.384 683.432 363.641 616.909 199.806ZM282.733 45.2603C405.44 28.424 528.626 95.841 577.357 215.865C596.858 263.899 601.94 314.2 594.628 361.977C584.934 372.878 572.596 381.142 558.759 385.938C543.156 391.337 526.324 392.096 510.295 388.126C496.342 384.677 482.203 382.425 468.012 381.357C442.987 379.47 417.816 381.278 393.316 386.707C379.419 389.79 365.734 394.043 352.414 399.446C336.77 405.8 319.59 407.366 303.052 403.959C286.514 400.552 271.36 392.311 259.501 380.285C247.645 368.264 239.619 352.993 236.442 336.406C233.262 319.822 235.076 302.665 241.646 287.116C247.238 273.872 251.683 260.25 254.958 246.395C260.735 221.97 262.889 196.829 261.357 171.782C260.489 157.572 258.452 143.392 255.192 129.393C251.445 113.315 252.441 96.4938 258.059 80.9668C263.074 67.1076 271.59 54.818 282.733 45.2528V45.2603ZM215.87 63.1607C217.18 62.6287 218.489 62.1118 219.802 61.5986C219.149 63.2022 218.512 64.8134 217.923 66.4435C214.471 75.9861 212.18 85.8532 211.067 95.841C209.467 110.217 210.305 124.835 213.614 139.064L213.591 139.071C213.591 139.071 213.603 139.113 213.607 139.132C223.802 183.015 219.851 229 202.324 270.502C196.638 283.969 193.325 298.239 192.457 312.676C191.823 323.256 192.503 333.927 194.514 344.443C199.279 369.32 211.316 392.224 229.103 410.26C246.891 428.296 269.621 440.65 294.43 445.77C304.92 447.936 315.579 448.763 326.163 448.276C340.615 447.612 354.927 444.506 368.477 439.009C410.22 422.055 456.254 418.75 499.994 429.564C500.013 429.568 500.032 429.572 500.054 429.579L500.062 429.572C514.234 433.073 528.829 434.115 543.224 432.715C553.227 431.745 563.128 429.595 572.72 426.274C574.294 425.727 575.848 425.146 577.395 424.542C573.78 433.447 569.705 442.163 565.192 450.653C542.142 456.098 518.094 456.026 494.976 450.302L494.934 450.291L494.825 450.264C480.818 446.801 466.552 444.948 452.289 444.684C440.75 444.472 429.211 445.295 417.82 447.155C403.719 449.453 389.845 453.328 376.461 458.766L376.476 458.796C349.108 469.901 319.062 472.644 290.132 466.678C261.191 460.709 234.669 446.291 213.923 425.251C193.17 404.212 179.13 377.493 173.568 348.469C168.007 319.445 171.176 289.425 182.677 262.205C188.303 248.896 192.367 235.067 194.865 221C196.88 209.635 197.868 198.112 197.819 186.569C197.755 172.303 196.099 158.013 192.838 143.962C192.835 143.943 192.831 143.924 192.823 143.901C187.424 120.654 187.692 96.4259 193.514 73.3976C200.751 69.6923 208.207 66.2737 215.882 63.157L215.87 63.1607ZM424.649 577.356C282.661 635.011 120.814 566.643 63.1624 424.652C27.4408 336.67 40.1115 241.078 88.6886 167.363C88.7414 167.582 88.7829 167.805 88.8357 168.024C88.8395 168.043 88.8471 168.065 88.8508 168.084L88.8584 168.092C88.8659 168.099 88.8622 168.11 88.866 168.122C92.9411 185.675 91.3601 204.07 84.3493 220.672C78.7574 233.909 74.3124 247.53 71.0372 261.393C62.7549 296.398 61.9059 332.919 68.7393 368.558C78.2744 418.316 102.348 464.124 137.918 500.192C173.485 536.265 218.953 560.98 268.568 571.209C304.112 578.537 340.637 578.197 375.755 570.413C389.656 567.326 403.345 563.078 416.661 557.671C433.358 550.89 451.772 549.569 469.265 553.894C469.268 553.897 469.283 553.897 469.291 553.897L469.302 553.909L469.299 553.92C469.468 553.961 469.642 553.999 469.812 554.041C455.741 563.017 440.667 570.854 424.649 577.356ZM514.944 518.07C503.013 517.195 491.172 515.331 479.547 512.467L479.554 512.459C467.499 509.475 455.16 508.275 442.912 508.841C440.72 508.943 438.535 509.097 436.35 509.312C424.144 510.501 412.103 513.448 400.599 518.115C361.481 533.997 318.534 537.921 277.19 529.397C235.842 520.87 197.955 500.272 168.312 470.214C138.673 440.152 118.611 401.978 110.664 360.517C102.718 319.056 107.246 276.169 123.674 237.282C128.504 225.849 131.617 213.839 132.979 201.655C133.221 199.474 133.409 197.293 133.541 195.101C134.274 182.86 133.251 170.503 130.436 158.413C130.436 158.413 130.425 158.372 130.421 158.353C127.708 146.629 125.999 134.709 125.297 122.71C131.957 116.134 138.979 109.859 146.356 103.938C146.28 106.263 146.235 108.587 146.246 110.908C146.31 125.205 147.952 139.524 151.223 153.58C158.373 184.313 155.615 216.525 143.333 245.591C137.715 258.892 133.643 272.713 131.145 286.787C127.07 309.744 127.191 333.372 131.625 356.506C138.775 393.82 156.834 428.179 183.507 455.23C210.184 482.284 244.287 500.819 281.499 508.494C304.569 513.248 328.189 513.701 351.206 509.95C365.311 507.648 379.189 503.769 392.565 498.34L392.55 498.309C421.77 486.454 454.055 484.152 484.671 491.729L484.709 491.737C498.707 495.2 512.985 497.057 527.267 497.325C529.497 497.366 531.731 497.366 533.965 497.328C528.003 504.535 521.653 511.459 514.944 518.07Z" fill="#4E61F3"/>
<path fill-rule="evenodd" clip-rule="evenodd" d="M275.028 365.598C299.743 390.313 339.807 390.313 364.522 365.598L380.679 349.441C405.394 324.726 405.394 284.662 380.679 259.947C355.964 235.232 315.9 235.232 291.185 259.947L275.028 276.104C250.313 300.819 250.313 340.883 275.028 365.598ZM321.371 290.133C329.412 282.092 342.452 282.092 350.493 290.133C358.534 298.174 358.534 311.214 350.493 319.255L334.336 335.412C326.295 343.453 313.255 343.453 305.214 335.412C297.173 327.371 297.173 314.331 305.214 306.29L321.371 290.133Z" fill="#4E61F3"/>
<path d="M794.006 72.5054V185.684H826.7V72.5054H865.32V42.6785H755.387V72.5054H794.006Z" fill="#4E61F3"/>
<path d="M988.883 42.6785V185.684H1019.94V42.6785H988.883ZM880.993 42.6785V185.684H922.473C930.374 185.684 937.594 184.527 944.133 182.211C950.672 179.896 956.325 176.491 961.093 171.997C965.861 167.502 969.539 162.054 972.127 155.653C974.852 149.116 976.214 141.625 976.214 133.181C976.214 125.69 974.92 118.88 972.331 112.751C969.879 106.486 966.269 101.175 961.502 96.8164C956.734 92.4581 950.944 89.1213 944.133 86.806C937.322 84.3545 929.557 83.1287 920.839 83.1287H912.052V42.6785H880.993ZM921.043 156.47H912.052V112.751H922.678C929.489 112.751 934.938 114.522 939.025 118.063C943.111 121.468 945.155 126.507 945.155 133.181C945.155 136.994 944.61 140.399 943.52 143.395C942.43 146.256 940.864 148.707 938.82 150.75C936.777 152.657 934.257 154.087 931.26 155.04C928.399 155.994 924.993 156.47 921.043 156.47Z" fill="#4E61F3"/>
<path d="M1034.13 114.181C1034.13 123.988 1035.62 133.385 1038.62 142.374C1041.75 151.363 1046.39 159.33 1052.52 166.276C1058.65 173.086 1066.34 178.534 1075.61 182.62C1085.01 186.57 1095.97 188.544 1108.5 188.544C1118.72 188.544 1127.98 187.182 1136.29 184.459C1144.74 181.598 1151.89 177.649 1157.75 172.609C1163.61 167.434 1168.17 161.237 1171.44 154.019C1174.85 146.8 1176.62 138.901 1176.75 130.321H1144.88C1144.6 134.543 1143.45 138.424 1141.4 141.965C1139.5 145.506 1136.97 148.503 1133.84 150.954C1130.71 153.406 1127.03 155.313 1122.81 156.675C1118.58 158.037 1114.02 158.717 1109.12 158.717C1101.49 158.717 1094.95 157.492 1089.5 155.04C1084.19 152.452 1079.76 149.048 1076.22 144.826C1072.68 140.603 1070.09 135.837 1068.45 130.525C1066.82 125.213 1066 119.765 1066 114.181C1066 107.508 1066.89 101.447 1068.66 95.9992C1070.57 90.4152 1073.36 85.7164 1077.04 81.9029C1080.71 77.9533 1085.14 74.9569 1090.32 72.914C1095.63 70.7349 1101.69 69.6453 1108.5 69.6453C1113.82 69.6453 1118.58 70.2582 1122.81 71.4839C1127.03 72.5735 1130.64 74.276 1133.64 76.5913C1136.77 78.7704 1139.22 81.4944 1140.99 84.7631C1142.9 87.8956 1144.13 91.3686 1144.67 95.182H1176.55C1176.14 87.0103 1174.3 79.5876 1171.03 72.914C1167.76 66.1042 1163.2 60.2478 1157.34 55.3447C1151.48 50.4417 1144.47 46.6282 1136.29 43.9042C1128.12 41.1803 1118.93 39.8184 1108.71 39.8184C1096.31 39.8184 1085.41 41.8613 1076.01 45.9472C1066.75 49.8969 1058.99 55.2766 1052.72 62.0864C1046.59 68.76 1041.96 76.5913 1038.83 85.5802C1035.69 94.5692 1034.13 104.103 1034.13 114.181Z" fill="#4E61F3"/>
<path d="M1261.63 105.397H1240.58C1235.27 105.397 1230.77 104.103 1227.1 101.515C1223.55 98.7912 1221.78 94.433 1221.78 88.4403C1221.78 85.444 1222.26 82.9244 1223.21 80.8815C1224.17 78.7023 1225.53 77.068 1227.3 75.9784C1229.07 74.7526 1231.18 73.8674 1233.63 73.3226C1236.09 72.7778 1238.67 72.5054 1241.4 72.5054H1261.63V105.397ZM1193.58 144.008L1185.21 185.684H1218.92L1225.05 148.503C1225.6 145.779 1226.35 143.532 1227.3 141.761C1228.25 139.991 1229.41 138.629 1230.77 137.675C1232.14 136.586 1233.7 135.837 1235.47 135.428C1237.38 134.883 1239.42 134.611 1241.6 134.611H1261.63V185.684H1292.69V42.6785H1238.95C1231.59 42.6785 1224.85 43.5638 1218.72 45.3343C1212.72 46.9687 1207.55 49.4883 1203.19 52.8932C1198.97 56.1619 1195.7 60.3159 1193.38 65.3551C1191.06 70.3944 1189.91 76.2508 1189.91 82.9244C1189.91 92.1857 1192.02 99.7446 1196.24 105.601C1200.6 111.457 1205.91 115.407 1212.18 117.45V123.375C1209.86 123.919 1207.75 124.737 1205.84 125.826C1203.94 126.78 1202.17 128.073 1200.53 129.708C1198.9 131.206 1197.47 133.181 1196.24 135.632C1195.15 137.948 1194.27 140.74 1193.58 144.008Z" fill="#4E61F3"/>
<path d="M1309.57 87.6232C1309.57 97.4293 1311.07 105.737 1314.06 112.547C1317.2 119.221 1321.35 124.668 1326.53 128.891C1331.7 132.976 1337.63 135.905 1344.31 137.675C1350.98 139.446 1358.06 140.331 1365.56 140.331C1368.69 140.331 1372.03 140.059 1375.57 139.514C1379.11 138.969 1382.38 138.152 1385.38 137.062V185.684H1416.44V42.6785H1385.38V109.074C1382.52 110.164 1379.59 110.981 1376.59 111.526C1373.59 111.934 1370.73 112.138 1368.01 112.138C1359.29 112.138 1352.55 110.164 1347.78 106.214C1343.01 102.264 1340.63 95.863 1340.63 87.0103V42.6785H1309.57V87.6232Z" fill="#4E61F3"/>
<path d="M1435.53 42.6785V185.684H1466.59V128.686H1512.36V185.684H1543.42V42.6785H1512.36V98.8593H1466.59V42.6785H1435.53Z" fill="#4E61F3"/>
<path d="M1562.85 42.6785V185.684H1596.56L1636 99.4722H1641.72V185.684H1671.96V42.6785H1638.45L1598.6 129.912H1593.09V42.6785H1562.85Z" fill="#4E61F3"/>
<path d="M1752.66 141.965L1762.47 185.684H1796.39L1783.31 135.837C1782.63 132.976 1781.81 130.457 1780.86 128.278C1779.91 126.099 1778.75 124.192 1777.38 122.557C1776.02 120.923 1774.39 119.493 1772.48 118.267C1770.71 117.042 1768.6 116.02 1766.15 115.203V109.891C1768.87 108.665 1771.19 107.303 1773.09 105.805C1775.14 104.307 1776.84 102.673 1778.2 100.902C1779.7 99.1317 1780.86 97.225 1781.68 95.182C1782.49 93.1391 1783.11 91.0281 1783.52 88.8489L1791.69 42.6785H1759.2L1752.05 87.6232C1751.5 90.3471 1750.82 92.5262 1750 94.1606C1749.19 95.6587 1748.16 96.8164 1746.94 97.6336C1745.71 98.4508 1744.28 98.9955 1742.65 99.2679C1741.01 99.5403 1739.17 99.6765 1737.13 99.6765H1722.01V42.6785H1690.95V185.684H1722.01V129.503H1737.13C1739.31 129.503 1741.22 129.708 1742.85 130.116C1744.49 130.389 1745.92 131.002 1747.14 131.955C1748.51 132.908 1749.6 134.202 1750.41 135.837C1751.37 137.471 1752.12 139.514 1752.66 141.965Z" fill="#4E61F3"/>
<path d="M1810.88 42.6785V185.684H1844.6L1884.04 99.4722H1889.76V185.684H1920V42.6785H1886.49L1846.64 129.912H1841.13V42.6785H1810.88Z" fill="#4E61F3"/>
<path d="M884.365 394.914C895.944 394.914 906.297 392.939 915.424 388.989C924.551 385.039 932.18 379.728 938.31 373.054C944.576 366.244 949.344 358.345 952.614 349.356C956.019 340.367 957.722 330.765 957.722 320.551C957.722 311.834 956.292 303.049 953.431 294.197C950.57 285.208 946.143 277.172 940.149 270.09C934.291 263.008 926.731 257.287 917.468 252.929C908.341 248.435 897.306 246.188 884.365 246.188C874.012 246.188 864.681 247.754 856.371 250.886C848.198 253.883 841.046 258.105 834.916 263.552C828.922 268.864 824.086 275.197 820.408 282.552C816.73 289.906 814.278 297.738 813.052 306.046H799.157V249.048H768.098V392.053H799.157V335.873H813.052C814.278 344.181 816.662 351.944 820.203 359.162C823.745 366.244 828.377 372.441 834.098 377.753C839.956 383.064 847.04 387.287 855.349 390.419C863.795 393.415 873.467 394.914 884.365 394.914ZM925.845 320.551C925.845 326.816 924.96 332.672 923.189 338.12C921.418 343.431 918.762 348.062 915.22 352.012C911.814 355.961 907.523 359.094 902.347 361.409C897.17 363.725 891.108 364.882 884.161 364.882C876.805 364.882 870.402 363.588 864.953 361.001C859.64 358.413 855.281 355.076 851.876 350.99C848.47 346.768 845.95 342.069 844.315 336.894C842.68 331.582 841.863 326.135 841.863 320.551C841.863 313.877 842.817 307.816 844.724 302.368C846.631 296.784 849.355 292.086 852.897 288.272C856.575 284.459 861.003 281.53 866.179 279.487C871.492 277.308 877.486 276.219 884.161 276.219C891.381 276.219 897.579 277.444 902.755 279.896C907.932 282.348 912.223 285.616 915.629 289.702C919.17 293.788 921.759 298.555 923.393 304.003C925.028 309.314 925.845 314.83 925.845 320.551Z" fill="#4E61F3"/>
<path d="M973.818 342.206L961.762 392.053H996.704L1004.67 348.335C1005.22 345.883 1005.9 343.84 1006.72 342.206C1007.53 340.571 1008.56 339.277 1009.78 338.324C1011.14 337.371 1012.71 336.758 1014.48 336.485C1016.25 336.077 1018.16 335.873 1020.2 335.873H1028.58V392.053H1059.23V335.873H1067.61C1069.79 335.873 1071.7 336.077 1073.33 336.485C1075.1 336.758 1076.6 337.371 1077.83 338.324C1079.05 339.277 1080.07 340.571 1080.89 342.206C1081.84 343.84 1082.59 345.883 1083.14 348.335L1091.11 392.053H1126.05L1113.99 342.206C1113.31 339.346 1112.49 336.826 1111.54 334.647C1110.72 332.331 1109.57 330.357 1108.07 328.722C1106.71 326.952 1105.07 325.522 1103.16 324.432C1101.39 323.206 1099.35 322.253 1097.03 321.572V316.26C1099.35 315.171 1101.39 313.877 1103.16 312.379C1104.93 310.744 1106.43 309.042 1107.66 307.271C1108.88 305.501 1109.84 303.594 1110.52 301.551C1111.34 299.508 1111.95 297.397 1112.36 295.218L1120.33 249.048H1088.45L1081.3 293.992C1080.75 296.716 1080.07 298.895 1079.26 300.53C1078.57 302.028 1077.55 303.186 1076.19 304.003C1074.96 304.82 1073.53 305.365 1071.9 305.637C1070.27 305.909 1068.43 306.046 1066.38 306.046H1059.23V249.048H1028.58V306.046H1021.43C1019.39 306.046 1017.55 305.909 1015.91 305.637C1014.28 305.365 1012.85 304.82 1011.62 304.003C1010.39 303.186 1009.37 302.028 1008.56 300.53C1007.74 298.895 1007.06 296.716 1006.51 293.992L999.36 249.048H967.484L975.453 295.218C976.27 299.713 977.769 303.73 979.948 307.271C982.264 310.813 985.874 313.809 990.778 316.26V321.572C985.874 323.07 982.128 325.454 979.54 328.722C977.088 331.855 975.18 336.349 973.818 342.206Z" fill="#4E61F3"/>
<path d="M1141.05 249.048V392.053H1172.11V335.055H1217.88V392.053H1248.94V249.048H1217.88V305.228H1172.11V249.048H1141.05Z" fill="#4E61F3"/>
<path d="M1381.77 320.551C1381.77 326.135 1380.95 331.65 1379.32 337.098C1377.68 342.41 1375.09 347.177 1371.55 351.399C1368.01 355.485 1363.52 358.822 1358.07 361.409C1352.62 363.861 1346.08 365.087 1338.45 365.087C1330.82 365.087 1324.28 363.861 1318.83 361.409C1313.38 358.822 1308.89 355.485 1305.35 351.399C1301.81 347.177 1299.22 342.41 1297.58 337.098C1295.95 331.65 1295.13 326.135 1295.13 320.551C1295.13 313.741 1296.08 307.612 1297.99 302.164C1299.9 296.58 1302.69 291.881 1306.37 288.068C1310.18 284.254 1314.75 281.326 1320.06 279.283C1325.51 277.104 1331.64 276.014 1338.45 276.014C1345.26 276.014 1351.32 277.104 1356.64 279.283C1362.09 281.326 1366.65 284.254 1370.33 288.068C1374.14 291.881 1377 296.58 1378.91 302.164C1380.82 307.612 1381.77 313.741 1381.77 320.551ZM1263.25 320.551C1263.25 330.493 1264.82 340.027 1267.95 349.152C1271.22 358.141 1275.99 366.04 1282.26 372.85C1288.66 379.523 1296.49 384.903 1305.76 388.989C1315.16 392.939 1326.05 394.914 1338.45 394.914C1350.85 394.914 1361.68 392.939 1370.94 388.989C1380.34 384.903 1388.17 379.523 1394.44 372.85C1400.84 366.04 1405.61 358.141 1408.74 349.152C1412.01 340.027 1413.65 330.493 1413.65 320.551C1413.65 310.472 1411.94 300.938 1408.54 291.949C1405.13 282.824 1400.23 274.925 1393.83 268.251C1387.42 261.441 1379.52 256.062 1370.12 252.112C1360.86 248.162 1350.3 246.188 1338.45 246.188C1326.6 246.188 1315.97 248.162 1306.57 252.112C1297.31 256.062 1289.48 261.441 1283.08 268.251C1276.67 274.925 1271.77 282.824 1268.36 291.949C1264.96 300.938 1263.25 310.472 1263.25 320.551Z" fill="#4E61F3"/>
<path d="M1428.2 249.048V392.053H1459.26V278.875H1496.45V307.476H1527.51V249.048H1428.2Z" fill="#4E61F3"/>
<path d="M1656.15 320.551C1656.15 326.135 1655.33 331.65 1653.7 337.098C1652.06 342.41 1649.47 347.177 1645.93 351.399C1642.39 355.485 1637.89 358.822 1632.44 361.409C1627 363.861 1620.46 365.087 1612.83 365.087C1605.2 365.087 1598.66 363.861 1593.21 361.409C1587.76 358.822 1583.27 355.485 1579.73 351.399C1576.18 347.177 1573.6 342.41 1571.96 337.098C1570.33 331.65 1569.51 326.135 1569.51 320.551C1569.51 313.741 1570.46 307.612 1572.37 302.164C1574.28 296.58 1577.07 291.881 1580.75 288.068C1584.56 284.254 1589.12 281.326 1594.44 279.283C1599.89 277.104 1606.02 276.014 1612.83 276.014C1619.64 276.014 1625.7 277.104 1631.01 279.283C1636.46 281.326 1641.03 284.254 1644.7 288.068C1648.52 291.881 1651.38 296.58 1653.29 302.164C1655.19 307.612 1656.15 313.741 1656.15 320.551ZM1537.63 320.551C1537.63 330.493 1539.2 340.027 1542.33 349.152C1545.6 358.141 1550.37 366.04 1556.64 372.85C1563.04 379.523 1570.87 384.903 1580.13 388.989C1589.53 392.939 1600.43 394.914 1612.83 394.914C1625.22 394.914 1636.05 392.939 1645.32 388.989C1654.72 384.903 1662.55 379.523 1668.82 372.85C1675.22 366.04 1679.99 358.141 1683.12 349.152C1686.39 340.027 1688.02 330.493 1688.02 320.551C1688.02 310.472 1686.32 300.938 1682.92 291.949C1679.51 282.824 1674.61 274.925 1668.2 268.251C1661.8 261.441 1653.9 256.062 1644.5 252.112C1635.24 248.162 1624.68 246.188 1612.83 246.188C1600.98 246.188 1590.35 248.162 1580.95 252.112C1571.69 256.062 1563.86 261.441 1557.45 268.251C1551.05 274.925 1546.15 282.824 1542.74 291.949C1539.33 300.938 1537.63 310.472 1537.63 320.551Z" fill="#4E61F3"/>
<path d="M764.807 454.812L801.179 557.164H819.364L804.039 597.818H839.185L889.248 454.812H854.919L829.786 527.541H823.86L799.544 454.812H764.807Z" fill="#4E61F3"/>
<path d="M901.455 454.812V597.818H932.514V557.368H952.539C960.985 557.368 968.614 556.006 975.425 553.282C982.372 550.558 988.162 546.881 992.793 542.25C997.561 537.62 1001.17 532.172 1003.62 525.907C1006.21 519.642 1007.51 512.832 1007.51 505.477C1007.51 497.306 1006.14 490.155 1003.42 484.027C1000.83 477.762 997.085 472.45 992.18 468.092C987.413 463.733 981.691 460.465 975.016 458.286C968.477 455.97 961.189 454.812 953.152 454.812H901.455ZM951.926 484.027C959.555 484.027 965.412 485.865 969.499 489.542C973.722 493.084 975.834 498.327 975.834 505.273C975.834 508.814 975.221 512.015 973.994 514.875C972.905 517.735 971.338 520.119 969.295 522.025C967.251 523.932 964.799 525.43 961.939 526.52C959.078 527.609 956.013 528.154 952.743 528.154H932.514V484.027H951.926Z" fill="#4E61F3"/>
<path d="M1034.21 454.812L1007.24 597.818H1037.28L1042.39 570.852H1087.34L1092.04 597.818H1123.31L1097.15 454.812H1034.21ZM1047.09 543.476L1058.33 484.639H1072.02L1082.64 543.476H1047.09Z" fill="#4E61F3"/>
<path d="M1129.81 567.991V597.818H1139.01C1145.55 597.818 1151.2 596.729 1155.97 594.55C1160.74 592.234 1164.75 588.898 1168.02 584.539C1171.29 580.181 1173.81 574.869 1175.58 568.604C1177.35 562.339 1178.51 555.121 1179.06 546.949L1183.55 484.639H1216.25V597.818H1247.31V454.812H1153.92L1152.9 483.005L1149.02 543.068C1148.88 547.153 1148.41 550.763 1147.59 553.895C1146.77 557.028 1145.55 559.615 1143.91 561.658C1142.41 563.701 1140.51 565.268 1138.19 566.357C1136.01 567.447 1133.22 567.991 1129.81 567.991Z" fill="#4E61F3"/>
<path d="M1285.84 454.812L1258.87 597.818H1288.91L1294.02 570.852H1338.97L1343.67 597.818H1374.93L1348.78 454.812H1285.84ZM1298.72 543.476L1309.96 484.639H1323.65L1334.27 543.476H1298.72Z" fill="#4E61F3"/>
</svg>
